# xmcd
#
# Track frame offsets: 
#        150
#        21987
#        23087
#        38675
#        55860
#        76355
#        95147
#        110647
#        132822
#        147365
#        166555
#
# Disc length: 2391 seconds
#
# Revision: 0
# Processed by: cddbd v1.5.1PL0 Copyright (c) Steve Scherf et al.
# Submitted via: ExactAudioCopy v0.95a2
#
DISCID=8909550b
DTITLE=Eric Clapton - 461 Ocean Bouleward
DYEAR=1974
DGENRE=Blues
TTITLE0=Motherless Children
TTITLE1=Better Make It Through Today
TTITLE2=Willie And The Hand Jive
TTITLE3=Get Ready
TTITLE4=I Shot The Sheriff
TTITLE5=I Can't Hold Out
TTITLE6=Please Be With Me
TTITLE7=Let It Grow
TTITLE8=Steady Rollin' Man
TTITLE9=Mainline Florida
TTITLE10=Give Me Strength
EXTD=
EXTT0=
EXTT1=
EXTT2=
EXTT3=
EXTT4=
EXTT5=
EXTT6=
EXTT7=
EXTT8=
EXTT9=
EXTT10=
PLAYORDER=
